<mxfile host="app.diagrams.net" modified="2021-02-07T22:45:48.952Z" agent="5.0 (Windows NT 10.0; Win64; x64) AppleWebKit/537.36 (KHTML, like Gecko) Chrome/88.0.4324.104 Safari/537.36" etag="hyErzivsc1VKlV_nJqNI" version="13.6.6" type="github">
  <diagram name="Page-1" id="e3a06f82-3646-2815-327d-82caf3d4e204">
    <mxGraphModel dx="1343" dy="656" grid="1" gridSize="10" guides="1" tooltips="1" connect="1" arrows="1" fold="1" page="1" pageScale="1.5" pageWidth="1169" pageHeight="826" background="none" math="0" shadow="0">
      <root>
        <mxCell id="0" style=";html=1;" />
        <mxCell id="1" style=";html=1;" parent="0" />
        <mxCell id="6a7d8f32e03d9370-61" value="Outside Networks" style="whiteSpace=wrap;html=1;fillColor=#f8cecc;fontSize=14;strokeColor=none;verticalAlign=top;" parent="1" vertex="1">
          <mxGeometry x="950" y="98" width="380" height="492" as="geometry" />
        </mxCell>
        <mxCell id="6a7d8f32e03d9370-59" value="DMZ Servers" style="whiteSpace=wrap;html=1;fillColor=#EDEDED;fontSize=14;strokeColor=none;verticalAlign=top;" parent="1" vertex="1">
          <mxGeometry x="599" y="98" width="351" height="492" as="geometry" />
        </mxCell>
        <mxCell id="6a7d8f32e03d9370-57" value="Internal Networks" style="whiteSpace=wrap;html=1;fillColor=#FFD470;gradientColor=none;fontSize=14;strokeColor=none;verticalAlign=top;" parent="1" vertex="1">
          <mxGeometry x="210" y="98" width="390" height="502" as="geometry" />
        </mxCell>
        <mxCell id="6a7d8f32e03d9370-33" style="edgeStyle=none;rounded=0;html=1;startSize=10;endSize=10;jettySize=auto;orthogonalLoop=1;fontSize=14;endArrow=none;endFill=0;strokeWidth=2;" parent="1" source="6a7d8f32e03d9370-4" target="N-zQ5q2tulOg0fyQsUWs-1" edge="1">
          <mxGeometry relative="1" as="geometry">
            <mxPoint x="637" y="365.14650283553874" as="targetPoint" />
          </mxGeometry>
        </mxCell>
        <mxCell id="6a7d8f32e03d9370-4" value="Client" style="verticalLabelPosition=bottom;aspect=fixed;html=1;verticalAlign=top;strokeColor=none;shape=mxgraph.citrix.desktop;fillColor=#66B2FF;gradientColor=#0066CC;fontSize=14;" parent="1" vertex="1">
          <mxGeometry x="365.99999999999994" y="320.00000000000006" width="89" height="98" as="geometry" />
        </mxCell>
        <mxCell id="6a7d8f32e03d9370-32" style="edgeStyle=none;rounded=0;html=1;startSize=10;endSize=10;jettySize=auto;orthogonalLoop=1;fontSize=14;endArrow=none;endFill=0;strokeWidth=2;" parent="1" source="6a7d8f32e03d9370-5" target="N-zQ5q2tulOg0fyQsUWs-2" edge="1">
          <mxGeometry relative="1" as="geometry">
            <mxPoint x="637" y="201.13687150837973" as="targetPoint" />
          </mxGeometry>
        </mxCell>
        <mxCell id="6a7d8f32e03d9370-5" value="Client" style="verticalLabelPosition=bottom;aspect=fixed;html=1;verticalAlign=top;strokeColor=none;shape=mxgraph.citrix.desktop;fillColor=#66B2FF;gradientColor=#0066CC;fontSize=14;" parent="1" vertex="1">
          <mxGeometry x="362.00000000000006" y="156.00000000000006" width="89" height="98" as="geometry" />
        </mxCell>
        <mxCell id="6a7d8f32e03d9370-39" style="edgeStyle=none;rounded=0;html=1;startSize=10;endSize=10;jettySize=auto;orthogonalLoop=1;fontSize=14;endArrow=none;endFill=0;strokeWidth=2;" parent="1" target="6a7d8f32e03d9370-21" edge="1">
          <mxGeometry relative="1" as="geometry">
            <mxPoint x="737" y="846" as="targetPoint" />
            <mxPoint x="713" y="858.1255144032923" as="sourcePoint" />
          </mxGeometry>
        </mxCell>
        <mxCell id="6a7d8f32e03d9370-40" style="edgeStyle=none;rounded=0;html=1;startSize=10;endSize=10;jettySize=auto;orthogonalLoop=1;fontSize=14;endArrow=none;endFill=0;strokeWidth=2;" parent="1" target="6a7d8f32e03d9370-20" edge="1">
          <mxGeometry relative="1" as="geometry">
            <mxPoint x="713" y="694.1255144032921" as="sourcePoint" />
          </mxGeometry>
        </mxCell>
        <mxCell id="6a7d8f32e03d9370-41" style="edgeStyle=none;rounded=0;html=1;startSize=10;endSize=10;jettySize=auto;orthogonalLoop=1;fontSize=14;endArrow=none;endFill=0;strokeWidth=2;" parent="1" target="6a7d8f32e03d9370-19" edge="1">
          <mxGeometry relative="1" as="geometry">
            <mxPoint x="713" y="529.1255144032921" as="sourcePoint" />
          </mxGeometry>
        </mxCell>
        <mxCell id="6a7d8f32e03d9370-42" style="edgeStyle=none;rounded=0;html=1;startSize=10;endSize=10;jettySize=auto;orthogonalLoop=1;fontSize=14;endArrow=none;endFill=0;strokeWidth=2;" parent="1" source="N-zQ5q2tulOg0fyQsUWs-1" target="6a7d8f32e03d9370-18" edge="1">
          <mxGeometry relative="1" as="geometry">
            <mxPoint x="713" y="365.9575342465753" as="sourcePoint" />
          </mxGeometry>
        </mxCell>
        <mxCell id="6a7d8f32e03d9370-43" style="edgeStyle=none;rounded=0;html=1;startSize=10;endSize=10;jettySize=auto;orthogonalLoop=1;fontSize=14;endArrow=none;endFill=0;strokeWidth=2;" parent="1" source="N-zQ5q2tulOg0fyQsUWs-2" target="6a7d8f32e03d9370-17" edge="1">
          <mxGeometry relative="1" as="geometry">
            <mxPoint x="713" y="201.95753424657528" as="sourcePoint" />
          </mxGeometry>
        </mxCell>
        <mxCell id="6a7d8f32e03d9370-52" style="edgeStyle=none;rounded=0;html=1;startSize=10;endSize=10;jettySize=auto;orthogonalLoop=1;fontSize=14;endArrow=none;endFill=0;strokeWidth=2;" parent="1" source="6a7d8f32e03d9370-13" target="6a7d8f32e03d9370-26" edge="1">
          <mxGeometry relative="1" as="geometry" />
        </mxCell>
        <mxCell id="6a7d8f32e03d9370-13" value="" style="verticalLabelPosition=bottom;aspect=fixed;html=1;verticalAlign=top;strokeColor=none;shape=mxgraph.citrix.router;fillColor=#66B2FF;gradientColor=#0066CC;fontSize=14;" parent="1" vertex="1">
          <mxGeometry x="930" y="277.75" width="55" height="36.5" as="geometry" />
        </mxCell>
        <mxCell id="6a7d8f32e03d9370-44" style="edgeStyle=none;rounded=0;html=1;startSize=10;endSize=10;jettySize=auto;orthogonalLoop=1;fontSize=14;endArrow=none;endFill=0;strokeWidth=2;" parent="1" source="6a7d8f32e03d9370-17" target="6a7d8f32e03d9370-13" edge="1">
          <mxGeometry relative="1" as="geometry" />
        </mxCell>
        <mxCell id="6a7d8f32e03d9370-17" value="" style="verticalLabelPosition=bottom;aspect=fixed;html=1;verticalAlign=top;strokeColor=none;shape=mxgraph.citrix.firewall;fillColor=#66B2FF;gradientColor=#0066CC;fontSize=14;" parent="1" vertex="1">
          <mxGeometry x="820" y="161" width="75" height="93" as="geometry" />
        </mxCell>
        <mxCell id="6a7d8f32e03d9370-45" style="edgeStyle=none;rounded=0;html=1;startSize=10;endSize=10;jettySize=auto;orthogonalLoop=1;fontSize=14;endArrow=none;endFill=0;strokeWidth=2;" parent="1" source="6a7d8f32e03d9370-18" target="6a7d8f32e03d9370-13" edge="1">
          <mxGeometry relative="1" as="geometry" />
        </mxCell>
        <mxCell id="6a7d8f32e03d9370-18" value="" style="verticalLabelPosition=bottom;aspect=fixed;html=1;verticalAlign=top;strokeColor=none;shape=mxgraph.citrix.firewall;fillColor=#66B2FF;gradientColor=#0066CC;fontSize=14;" parent="1" vertex="1">
          <mxGeometry x="820" y="325" width="75" height="93" as="geometry" />
        </mxCell>
        <mxCell id="6a7d8f32e03d9370-24" value="" style="verticalLabelPosition=bottom;aspect=fixed;html=1;verticalAlign=top;strokeColor=none;shape=mxgraph.citrix.hq_enterprise;fillColor=#66B2FF;gradientColor=#0066CC;fontSize=14;" parent="1" vertex="1">
          <mxGeometry x="227" y="252" width="92" height="88" as="geometry" />
        </mxCell>
        <mxCell id="6a7d8f32e03d9370-53" style="edgeStyle=none;rounded=0;html=1;startSize=10;endSize=10;jettySize=auto;orthogonalLoop=1;fontSize=14;endArrow=none;endFill=0;strokeWidth=2;" parent="1" source="6a7d8f32e03d9370-26" target="6a7d8f32e03d9370-29" edge="1">
          <mxGeometry relative="1" as="geometry" />
        </mxCell>
        <mxCell id="6a7d8f32e03d9370-54" style="edgeStyle=none;rounded=0;html=1;startSize=10;endSize=10;jettySize=auto;orthogonalLoop=1;fontSize=14;endArrow=none;endFill=0;strokeWidth=2;" parent="1" source="6a7d8f32e03d9370-26" target="6a7d8f32e03d9370-28" edge="1">
          <mxGeometry relative="1" as="geometry" />
        </mxCell>
        <mxCell id="6a7d8f32e03d9370-55" style="edgeStyle=none;rounded=0;html=1;startSize=10;endSize=10;jettySize=auto;orthogonalLoop=1;fontSize=14;endArrow=none;endFill=0;strokeWidth=2;" parent="1" source="6a7d8f32e03d9370-26" target="6a7d8f32e03d9370-27" edge="1">
          <mxGeometry relative="1" as="geometry" />
        </mxCell>
        <mxCell id="6a7d8f32e03d9370-26" value="" style="verticalLabelPosition=bottom;aspect=fixed;html=1;verticalAlign=top;strokeColor=none;shape=mxgraph.citrix.switch;fillColor=#66B2FF;gradientColor=#0066CC;fontSize=14;" parent="1" vertex="1">
          <mxGeometry x="1048" y="275.25" width="92" height="41.5" as="geometry" />
        </mxCell>
        <mxCell id="6a7d8f32e03d9370-27" value="Client" style="verticalLabelPosition=top;aspect=fixed;html=1;verticalAlign=bottom;strokeColor=none;shape=mxgraph.citrix.thin_client;fillColor=#66B2FF;gradientColor=#0066CC;fontSize=14;labelPosition=center;align=center;" parent="1" vertex="1">
          <mxGeometry x="1220" y="300" width="71" height="71" as="geometry" />
        </mxCell>
        <mxCell id="6a7d8f32e03d9370-28" value="Client" style="verticalLabelPosition=top;aspect=fixed;html=1;verticalAlign=bottom;strokeColor=none;shape=mxgraph.citrix.thin_client;fillColor=#66B2FF;gradientColor=#0066CC;fontSize=14;labelPosition=center;align=center;" parent="1" vertex="1">
          <mxGeometry x="1211" y="211" width="71" height="71" as="geometry" />
        </mxCell>
        <mxCell id="6a7d8f32e03d9370-29" value="Client" style="verticalLabelPosition=top;aspect=fixed;html=1;verticalAlign=bottom;strokeColor=none;shape=mxgraph.citrix.thin_client;fillColor=#66B2FF;gradientColor=#0066CC;fontSize=14;labelPosition=center;align=center;" parent="1" vertex="1">
          <mxGeometry x="1090" y="181" width="71" height="71" as="geometry" />
        </mxCell>
        <mxCell id="6a7d8f32e03d9370-62" value="ECG Network Architecture" style="text;strokeColor=none;fillColor=none;html=1;fontSize=24;fontStyle=1;verticalAlign=middle;align=center;" parent="1" vertex="1">
          <mxGeometry x="499" y="30" width="861" height="40" as="geometry" />
        </mxCell>
        <mxCell id="N-zQ5q2tulOg0fyQsUWs-1" value="&lt;span style=&quot;font-size: 14px&quot;&gt;Win2008 ECS&lt;/span&gt;&lt;br style=&quot;font-size: 14px&quot;&gt;&lt;span style=&quot;font-size: 14px&quot;&gt;Production&lt;/span&gt;" style="verticalLabelPosition=bottom;aspect=fixed;html=1;verticalAlign=top;strokeColor=none;align=center;outlineConnect=0;shape=mxgraph.citrix.database_server;" vertex="1" parent="1">
          <mxGeometry x="653" y="326.5" width="80" height="90" as="geometry" />
        </mxCell>
        <mxCell id="N-zQ5q2tulOg0fyQsUWs-2" value="&lt;span style=&quot;font-size: 14px&quot;&gt;Win2008 - ECS&lt;/span&gt;&lt;br style=&quot;font-size: 14px&quot;&gt;&lt;span style=&quot;font-size: 14px&quot;&gt;Development&lt;/span&gt;" style="verticalLabelPosition=bottom;aspect=fixed;html=1;verticalAlign=top;strokeColor=none;align=center;outlineConnect=0;shape=mxgraph.citrix.database_server;" vertex="1" parent="1">
          <mxGeometry x="660" y="162.5" width="80" height="90" as="geometry" />
        </mxCell>
        <mxCell id="N-zQ5q2tulOg0fyQsUWs-9" value="Outside Networks" style="whiteSpace=wrap;html=1;fillColor=#f8cecc;fontSize=14;strokeColor=none;verticalAlign=top;" vertex="1" parent="1">
          <mxGeometry x="950" y="758" width="380" height="492" as="geometry" />
        </mxCell>
        <mxCell id="N-zQ5q2tulOg0fyQsUWs-10" value="DMZ Servers" style="whiteSpace=wrap;html=1;fillColor=#EDEDED;fontSize=14;strokeColor=none;verticalAlign=top;" vertex="1" parent="1">
          <mxGeometry x="599" y="758" width="351" height="492" as="geometry" />
        </mxCell>
        <mxCell id="N-zQ5q2tulOg0fyQsUWs-11" value="Internal Networks" style="whiteSpace=wrap;html=1;fillColor=#FFD470;gradientColor=none;fontSize=14;strokeColor=none;verticalAlign=top;" vertex="1" parent="1">
          <mxGeometry x="210" y="758" width="390" height="492" as="geometry" />
        </mxCell>
        <mxCell id="N-zQ5q2tulOg0fyQsUWs-12" style="edgeStyle=none;rounded=0;html=1;startSize=10;endSize=10;jettySize=auto;orthogonalLoop=1;fontSize=14;endArrow=none;endFill=0;strokeWidth=2;exitX=0.826;exitY=0.376;exitDx=0;exitDy=0;exitPerimeter=0;" edge="1" parent="1" source="N-zQ5q2tulOg0fyQsUWs-13" target="N-zQ5q2tulOg0fyQsUWs-36">
          <mxGeometry relative="1" as="geometry">
            <mxPoint x="653" y="1031.1460176991147" as="targetPoint" />
          </mxGeometry>
        </mxCell>
        <mxCell id="N-zQ5q2tulOg0fyQsUWs-13" value="Client" style="verticalLabelPosition=bottom;aspect=fixed;html=1;verticalAlign=top;strokeColor=none;shape=mxgraph.citrix.desktop;fillColor=#66B2FF;gradientColor=#0066CC;fontSize=14;" vertex="1" parent="1">
          <mxGeometry x="329.99999999999994" y="1120" width="89" height="98" as="geometry" />
        </mxCell>
        <mxCell id="N-zQ5q2tulOg0fyQsUWs-14" style="edgeStyle=none;rounded=0;html=1;startSize=10;endSize=10;jettySize=auto;orthogonalLoop=1;fontSize=14;endArrow=none;endFill=0;strokeWidth=2;exitX=0.963;exitY=0.591;exitDx=0;exitDy=0;exitPerimeter=0;" edge="1" parent="1" source="N-zQ5q2tulOg0fyQsUWs-15" target="N-zQ5q2tulOg0fyQsUWs-35">
          <mxGeometry relative="1" as="geometry">
            <mxPoint x="660" y="867.1592844974446" as="targetPoint" />
          </mxGeometry>
        </mxCell>
        <mxCell id="N-zQ5q2tulOg0fyQsUWs-15" value="Client" style="verticalLabelPosition=bottom;aspect=fixed;html=1;verticalAlign=top;strokeColor=none;shape=mxgraph.citrix.desktop;fillColor=#66B2FF;gradientColor=#0066CC;fontSize=14;" vertex="1" parent="1">
          <mxGeometry x="330.00000000000006" y="857.5" width="89" height="98" as="geometry" />
        </mxCell>
        <mxCell id="N-zQ5q2tulOg0fyQsUWs-16" style="edgeStyle=none;rounded=0;html=1;startSize=10;endSize=10;jettySize=auto;orthogonalLoop=1;fontSize=14;endArrow=none;endFill=0;strokeWidth=2;" edge="1" parent="1" source="N-zQ5q2tulOg0fyQsUWs-36" target="N-zQ5q2tulOg0fyQsUWs-23">
          <mxGeometry relative="1" as="geometry">
            <mxPoint x="733" y="1031.4999999999998" as="sourcePoint" />
          </mxGeometry>
        </mxCell>
        <mxCell id="N-zQ5q2tulOg0fyQsUWs-17" style="edgeStyle=none;rounded=0;html=1;startSize=10;endSize=10;jettySize=auto;orthogonalLoop=1;fontSize=14;endArrow=none;endFill=0;strokeWidth=2;" edge="1" parent="1" source="N-zQ5q2tulOg0fyQsUWs-35" target="N-zQ5q2tulOg0fyQsUWs-21">
          <mxGeometry relative="1" as="geometry">
            <mxPoint x="740" y="867.5" as="sourcePoint" />
          </mxGeometry>
        </mxCell>
        <mxCell id="N-zQ5q2tulOg0fyQsUWs-18" style="edgeStyle=none;rounded=0;html=1;startSize=10;endSize=10;jettySize=auto;orthogonalLoop=1;fontSize=14;endArrow=none;endFill=0;strokeWidth=2;" edge="1" parent="1" source="N-zQ5q2tulOg0fyQsUWs-19" target="N-zQ5q2tulOg0fyQsUWs-28">
          <mxGeometry relative="1" as="geometry" />
        </mxCell>
        <mxCell id="N-zQ5q2tulOg0fyQsUWs-19" value="" style="verticalLabelPosition=bottom;aspect=fixed;html=1;verticalAlign=top;strokeColor=none;shape=mxgraph.citrix.router;fillColor=#66B2FF;gradientColor=#0066CC;fontSize=14;" vertex="1" parent="1">
          <mxGeometry x="930" y="1040" width="55" height="36.5" as="geometry" />
        </mxCell>
        <mxCell id="N-zQ5q2tulOg0fyQsUWs-20" style="edgeStyle=none;rounded=0;html=1;startSize=10;endSize=10;jettySize=auto;orthogonalLoop=1;fontSize=14;endArrow=none;endFill=0;strokeWidth=2;" edge="1" parent="1" source="N-zQ5q2tulOg0fyQsUWs-21" target="N-zQ5q2tulOg0fyQsUWs-19">
          <mxGeometry relative="1" as="geometry" />
        </mxCell>
        <mxCell id="N-zQ5q2tulOg0fyQsUWs-21" value="" style="verticalLabelPosition=bottom;aspect=fixed;html=1;verticalAlign=top;strokeColor=none;shape=mxgraph.citrix.firewall;fillColor=#66B2FF;gradientColor=#0066CC;fontSize=14;" vertex="1" parent="1">
          <mxGeometry x="820" y="871" width="75" height="93" as="geometry" />
        </mxCell>
        <mxCell id="N-zQ5q2tulOg0fyQsUWs-22" style="edgeStyle=none;rounded=0;html=1;startSize=10;endSize=10;jettySize=auto;orthogonalLoop=1;fontSize=14;endArrow=none;endFill=0;strokeWidth=2;exitX=0.85;exitY=0.188;exitDx=0;exitDy=0;exitPerimeter=0;" edge="1" parent="1" source="N-zQ5q2tulOg0fyQsUWs-23" target="N-zQ5q2tulOg0fyQsUWs-19">
          <mxGeometry relative="1" as="geometry" />
        </mxCell>
        <mxCell id="N-zQ5q2tulOg0fyQsUWs-23" value="" style="verticalLabelPosition=bottom;aspect=fixed;html=1;verticalAlign=top;strokeColor=none;shape=mxgraph.citrix.firewall;fillColor=#66B2FF;gradientColor=#0066CC;fontSize=14;" vertex="1" parent="1">
          <mxGeometry x="820" y="1110" width="75" height="93" as="geometry" />
        </mxCell>
        <mxCell id="N-zQ5q2tulOg0fyQsUWs-25" style="edgeStyle=none;rounded=0;html=1;startSize=10;endSize=10;jettySize=auto;orthogonalLoop=1;fontSize=14;endArrow=none;endFill=0;strokeWidth=2;" edge="1" parent="1" source="N-zQ5q2tulOg0fyQsUWs-28" target="N-zQ5q2tulOg0fyQsUWs-31">
          <mxGeometry relative="1" as="geometry" />
        </mxCell>
        <mxCell id="N-zQ5q2tulOg0fyQsUWs-26" style="edgeStyle=none;rounded=0;html=1;startSize=10;endSize=10;jettySize=auto;orthogonalLoop=1;fontSize=14;endArrow=none;endFill=0;strokeWidth=2;" edge="1" parent="1" source="N-zQ5q2tulOg0fyQsUWs-28" target="N-zQ5q2tulOg0fyQsUWs-30">
          <mxGeometry relative="1" as="geometry" />
        </mxCell>
        <mxCell id="N-zQ5q2tulOg0fyQsUWs-27" style="edgeStyle=none;rounded=0;html=1;startSize=10;endSize=10;jettySize=auto;orthogonalLoop=1;fontSize=14;endArrow=none;endFill=0;strokeWidth=2;" edge="1" parent="1" source="N-zQ5q2tulOg0fyQsUWs-28" target="N-zQ5q2tulOg0fyQsUWs-29">
          <mxGeometry relative="1" as="geometry" />
        </mxCell>
        <mxCell id="N-zQ5q2tulOg0fyQsUWs-28" value="" style="verticalLabelPosition=bottom;aspect=fixed;html=1;verticalAlign=top;strokeColor=none;shape=mxgraph.citrix.switch;fillColor=#66B2FF;gradientColor=#0066CC;fontSize=14;" vertex="1" parent="1">
          <mxGeometry x="1048" y="935.25" width="92" height="41.5" as="geometry" />
        </mxCell>
        <mxCell id="N-zQ5q2tulOg0fyQsUWs-29" value="Client" style="verticalLabelPosition=top;aspect=fixed;html=1;verticalAlign=bottom;strokeColor=none;shape=mxgraph.citrix.thin_client;fillColor=#66B2FF;gradientColor=#0066CC;fontSize=14;labelPosition=center;align=center;" vertex="1" parent="1">
          <mxGeometry x="1220" y="960" width="71" height="71" as="geometry" />
        </mxCell>
        <mxCell id="N-zQ5q2tulOg0fyQsUWs-30" value="Client" style="verticalLabelPosition=top;aspect=fixed;html=1;verticalAlign=bottom;strokeColor=none;shape=mxgraph.citrix.thin_client;fillColor=#66B2FF;gradientColor=#0066CC;fontSize=14;labelPosition=center;align=center;" vertex="1" parent="1">
          <mxGeometry x="1211" y="871" width="71" height="71" as="geometry" />
        </mxCell>
        <mxCell id="N-zQ5q2tulOg0fyQsUWs-31" value="Client" style="verticalLabelPosition=top;aspect=fixed;html=1;verticalAlign=bottom;strokeColor=none;shape=mxgraph.citrix.thin_client;fillColor=#66B2FF;gradientColor=#0066CC;fontSize=14;labelPosition=center;align=center;" vertex="1" parent="1">
          <mxGeometry x="1090" y="841" width="71" height="71" as="geometry" />
        </mxCell>
        <mxCell id="N-zQ5q2tulOg0fyQsUWs-32" value="ECG Network Architecture" style="text;strokeColor=none;fillColor=none;html=1;fontSize=24;fontStyle=1;verticalAlign=middle;align=center;" vertex="1" parent="1">
          <mxGeometry x="499" y="690" width="861" height="40" as="geometry" />
        </mxCell>
        <mxCell id="N-zQ5q2tulOg0fyQsUWs-35" value="&lt;b&gt;&lt;span style=&quot;font-size: 14px&quot;&gt;Win2016 ECS&lt;/span&gt;&lt;br style=&quot;font-size: 14px&quot;&gt;&lt;span style=&quot;font-size: 14px&quot;&gt;Development&lt;/span&gt;&lt;/b&gt;" style="verticalLabelPosition=bottom;aspect=fixed;html=1;verticalAlign=top;strokeColor=none;align=center;outlineConnect=0;shape=mxgraph.citrix.xenapp_server;" vertex="1" parent="1">
          <mxGeometry x="680" y="871" width="76" height="89" as="geometry" />
        </mxCell>
        <mxCell id="N-zQ5q2tulOg0fyQsUWs-36" value="&lt;b&gt;&lt;span style=&quot;font-size: 14px&quot;&gt;Win2016 ECS&lt;/span&gt;&lt;br style=&quot;font-size: 14px&quot;&gt;&lt;span style=&quot;font-size: 14px&quot;&gt;Production&lt;/span&gt;&lt;/b&gt;" style="verticalLabelPosition=bottom;aspect=fixed;html=1;verticalAlign=top;strokeColor=none;align=center;outlineConnect=0;shape=mxgraph.citrix.xenapp_server;" vertex="1" parent="1">
          <mxGeometry x="680" y="1110" width="76" height="89" as="geometry" />
        </mxCell>
        <mxCell id="N-zQ5q2tulOg0fyQsUWs-43" style="edgeStyle=orthogonalEdgeStyle;rounded=0;orthogonalLoop=1;jettySize=auto;html=1;dashed=1;endArrow=none;endFill=0;" edge="1" parent="1" source="N-zQ5q2tulOg0fyQsUWs-37" target="N-zQ5q2tulOg0fyQsUWs-35">
          <mxGeometry relative="1" as="geometry">
            <Array as="points">
              <mxPoint x="718" y="800" />
            </Array>
          </mxGeometry>
        </mxCell>
        <mxCell id="N-zQ5q2tulOg0fyQsUWs-37" value="&lt;font style=&quot;font-size: 14px&quot;&gt;&lt;b&gt;Win2016 ECS&lt;br&gt;Development DB&lt;/b&gt;&lt;/font&gt;" style="verticalLabelPosition=bottom;aspect=fixed;html=1;verticalAlign=top;strokeColor=none;align=center;outlineConnect=0;shape=mxgraph.citrix.database_server;" vertex="1" parent="1">
          <mxGeometry x="490" y="770" width="80" height="90" as="geometry" />
        </mxCell>
        <mxCell id="N-zQ5q2tulOg0fyQsUWs-44" style="edgeStyle=orthogonalEdgeStyle;rounded=0;orthogonalLoop=1;jettySize=auto;html=1;dashed=1;endArrow=none;endFill=0;" edge="1" parent="1" source="N-zQ5q2tulOg0fyQsUWs-39" target="N-zQ5q2tulOg0fyQsUWs-36">
          <mxGeometry relative="1" as="geometry" />
        </mxCell>
        <mxCell id="N-zQ5q2tulOg0fyQsUWs-39" value="&lt;font style=&quot;font-size: 14px&quot;&gt;&lt;b&gt;Win2016 ECS&amp;nbsp;&lt;br&gt;Production DB&lt;/b&gt;&lt;/font&gt;" style="verticalLabelPosition=bottom;aspect=fixed;html=1;verticalAlign=top;strokeColor=none;align=center;outlineConnect=0;shape=mxgraph.citrix.database_server;" vertex="1" parent="1">
          <mxGeometry x="490" y="990" width="80" height="90" as="geometry" />
        </mxCell>
      </root>
    </mxGraphModel>
  </diagram>
</mxfile>
